<mxfile host="Electron" agent="Mozilla/5.0 (Macintosh; Intel Mac OS X 10_15_7) AppleWebKit/537.36 (KHTML, like Gecko) draw.io/28.0.6 Chrome/138.0.7204.100 Electron/37.2.3 Safari/537.36" version="28.0.6">
  <diagram id="C5RBs43oDa-KdzZeNtuy" name="Page-1">
    <mxGraphModel dx="567" dy="859" grid="1" gridSize="10" guides="1" tooltips="1" connect="1" arrows="1" fold="1" page="1" pageScale="1" pageWidth="827" pageHeight="1169" math="0" shadow="0">
      <root>
        <mxCell id="WIyWlLk6GJQsqaUBKTNV-0" />
        <mxCell id="WIyWlLk6GJQsqaUBKTNV-1" parent="WIyWlLk6GJQsqaUBKTNV-0" />
        <mxCell id="DTJNCJ_yFgwHsp0HSej9-0" value="Input Image (&lt;span style=&quot;forced-color-adjust: none;&quot; class=&quot;s1&quot;&gt;32&lt;/span&gt;×&lt;span style=&quot;forced-color-adjust: none;&quot; class=&quot;s1&quot;&gt;32&lt;/span&gt;×&lt;span style=&quot;forced-color-adjust: none;&quot; class=&quot;s1&quot;&gt;3&lt;/span&gt;)" style="rounded=1;whiteSpace=wrap;html=1;" vertex="1" parent="WIyWlLk6GJQsqaUBKTNV-1">
          <mxGeometry x="320" y="120" width="210" height="40" as="geometry" />
        </mxCell>
        <mxCell id="DTJNCJ_yFgwHsp0HSej9-16" style="edgeStyle=orthogonalEdgeStyle;rounded=0;orthogonalLoop=1;jettySize=auto;html=1;exitX=0.5;exitY=1;exitDx=0;exitDy=0;entryX=0.5;entryY=0;entryDx=0;entryDy=0;" edge="1" parent="WIyWlLk6GJQsqaUBKTNV-1" source="DTJNCJ_yFgwHsp0HSej9-1" target="DTJNCJ_yFgwHsp0HSej9-3">
          <mxGeometry relative="1" as="geometry" />
        </mxCell>
        <mxCell id="DTJNCJ_yFgwHsp0HSej9-1" value="&lt;p class=&quot;p1&quot;&gt;Conv2D (&lt;span class=&quot;s1&quot;&gt;3&lt;/span&gt;×&lt;span class=&quot;s1&quot;&gt;3&lt;/span&gt;, &lt;span class=&quot;s1&quot;&gt;32&lt;/span&gt;) + BatchNorm + ReLU&lt;/p&gt;" style="rounded=1;whiteSpace=wrap;html=1;" vertex="1" parent="WIyWlLk6GJQsqaUBKTNV-1">
          <mxGeometry x="280" y="190" width="290" height="40" as="geometry" />
        </mxCell>
        <mxCell id="DTJNCJ_yFgwHsp0HSej9-2" value="Custom CNN Architecture &lt;span class=&quot;s1&quot;&gt;for&lt;/span&gt; Traffic Sign Recognition" style="text;whiteSpace=wrap;html=1;" vertex="1" parent="WIyWlLk6GJQsqaUBKTNV-1">
          <mxGeometry x="280" y="70" width="290" height="30" as="geometry" />
        </mxCell>
        <mxCell id="DTJNCJ_yFgwHsp0HSej9-17" style="edgeStyle=orthogonalEdgeStyle;rounded=0;orthogonalLoop=1;jettySize=auto;html=1;exitX=0.5;exitY=1;exitDx=0;exitDy=0;entryX=0.5;entryY=0;entryDx=0;entryDy=0;" edge="1" parent="WIyWlLk6GJQsqaUBKTNV-1" source="DTJNCJ_yFgwHsp0HSej9-3" target="DTJNCJ_yFgwHsp0HSej9-4">
          <mxGeometry relative="1" as="geometry" />
        </mxCell>
        <mxCell id="DTJNCJ_yFgwHsp0HSej9-3" value="&lt;p class=&quot;p1&quot;&gt;&lt;span style=&quot;background-color: transparent; color: light-dark(rgb(0, 0, 0), rgb(255, 255, 255));&quot;&gt;MaxPool (&lt;/span&gt;&lt;span style=&quot;background-color: transparent; color: light-dark(rgb(0, 0, 0), rgb(255, 255, 255));&quot; class=&quot;s1&quot;&gt;2&lt;/span&gt;&lt;span style=&quot;background-color: transparent; color: light-dark(rgb(0, 0, 0), rgb(255, 255, 255));&quot;&gt;×&lt;/span&gt;&lt;span style=&quot;background-color: transparent; color: light-dark(rgb(0, 0, 0), rgb(255, 255, 255));&quot; class=&quot;s1&quot;&gt;2&lt;/span&gt;&lt;span style=&quot;background-color: transparent; color: light-dark(rgb(0, 0, 0), rgb(255, 255, 255));&quot;&gt;) + Dropout(&lt;/span&gt;&lt;span style=&quot;background-color: transparent; color: light-dark(rgb(0, 0, 0), rgb(255, 255, 255));&quot; class=&quot;s1&quot;&gt;0.25&lt;/span&gt;&lt;span style=&quot;background-color: transparent; color: light-dark(rgb(0, 0, 0), rgb(255, 255, 255));&quot;&gt;)&lt;/span&gt;&lt;/p&gt;" style="rounded=1;whiteSpace=wrap;html=1;" vertex="1" parent="WIyWlLk6GJQsqaUBKTNV-1">
          <mxGeometry x="280" y="260" width="290" height="40" as="geometry" />
        </mxCell>
        <mxCell id="DTJNCJ_yFgwHsp0HSej9-18" style="edgeStyle=orthogonalEdgeStyle;rounded=0;orthogonalLoop=1;jettySize=auto;html=1;exitX=0.5;exitY=1;exitDx=0;exitDy=0;entryX=0.5;entryY=0;entryDx=0;entryDy=0;" edge="1" parent="WIyWlLk6GJQsqaUBKTNV-1" source="DTJNCJ_yFgwHsp0HSej9-4" target="DTJNCJ_yFgwHsp0HSej9-5">
          <mxGeometry relative="1" as="geometry" />
        </mxCell>
        <mxCell id="DTJNCJ_yFgwHsp0HSej9-4" value="&lt;p class=&quot;p1&quot;&gt;&lt;span style=&quot;background-color: transparent; color: light-dark(rgb(0, 0, 0), rgb(255, 255, 255));&quot;&gt;Conv2D (&lt;/span&gt;&lt;span style=&quot;background-color: transparent; color: light-dark(rgb(0, 0, 0), rgb(255, 255, 255));&quot; class=&quot;s1&quot;&gt;3&lt;/span&gt;&lt;span style=&quot;background-color: transparent; color: light-dark(rgb(0, 0, 0), rgb(255, 255, 255));&quot;&gt;×&lt;/span&gt;&lt;span style=&quot;background-color: transparent; color: light-dark(rgb(0, 0, 0), rgb(255, 255, 255));&quot; class=&quot;s1&quot;&gt;3&lt;/span&gt;&lt;span style=&quot;background-color: transparent; color: light-dark(rgb(0, 0, 0), rgb(255, 255, 255));&quot;&gt;, &lt;/span&gt;&lt;span style=&quot;background-color: transparent; color: light-dark(rgb(0, 0, 0), rgb(255, 255, 255));&quot; class=&quot;s1&quot;&gt;64&lt;/span&gt;&lt;span style=&quot;background-color: transparent; color: light-dark(rgb(0, 0, 0), rgb(255, 255, 255));&quot;&gt;) + BatchNorm + ReLU&lt;/span&gt;&lt;/p&gt;" style="rounded=1;whiteSpace=wrap;html=1;" vertex="1" parent="WIyWlLk6GJQsqaUBKTNV-1">
          <mxGeometry x="280" y="330" width="290" height="40" as="geometry" />
        </mxCell>
        <mxCell id="DTJNCJ_yFgwHsp0HSej9-19" style="edgeStyle=orthogonalEdgeStyle;rounded=0;orthogonalLoop=1;jettySize=auto;html=1;exitX=0.5;exitY=1;exitDx=0;exitDy=0;entryX=0.5;entryY=0;entryDx=0;entryDy=0;" edge="1" parent="WIyWlLk6GJQsqaUBKTNV-1" source="DTJNCJ_yFgwHsp0HSej9-5" target="DTJNCJ_yFgwHsp0HSej9-6">
          <mxGeometry relative="1" as="geometry" />
        </mxCell>
        <mxCell id="DTJNCJ_yFgwHsp0HSej9-5" value="&lt;p class=&quot;p1&quot;&gt;MaxPool (2×2) + Dropout(0.25)&lt;/p&gt;" style="rounded=1;whiteSpace=wrap;html=1;" vertex="1" parent="WIyWlLk6GJQsqaUBKTNV-1">
          <mxGeometry x="280" y="400" width="290" height="40" as="geometry" />
        </mxCell>
        <mxCell id="DTJNCJ_yFgwHsp0HSej9-20" style="edgeStyle=orthogonalEdgeStyle;rounded=0;orthogonalLoop=1;jettySize=auto;html=1;exitX=0.5;exitY=1;exitDx=0;exitDy=0;entryX=0.5;entryY=0;entryDx=0;entryDy=0;" edge="1" parent="WIyWlLk6GJQsqaUBKTNV-1" source="DTJNCJ_yFgwHsp0HSej9-6" target="DTJNCJ_yFgwHsp0HSej9-9">
          <mxGeometry relative="1" as="geometry" />
        </mxCell>
        <mxCell id="DTJNCJ_yFgwHsp0HSej9-6" value="&lt;p class=&quot;p1&quot;&gt;Conv2D (3×3, 128) + BatchNorm + ReLU&lt;/p&gt;" style="rounded=1;whiteSpace=wrap;html=1;" vertex="1" parent="WIyWlLk6GJQsqaUBKTNV-1">
          <mxGeometry x="280" y="470" width="290" height="40" as="geometry" />
        </mxCell>
        <mxCell id="DTJNCJ_yFgwHsp0HSej9-21" style="edgeStyle=orthogonalEdgeStyle;rounded=0;orthogonalLoop=1;jettySize=auto;html=1;exitX=0.5;exitY=1;exitDx=0;exitDy=0;entryX=0.5;entryY=0;entryDx=0;entryDy=0;" edge="1" parent="WIyWlLk6GJQsqaUBKTNV-1" source="DTJNCJ_yFgwHsp0HSej9-9" target="DTJNCJ_yFgwHsp0HSej9-10">
          <mxGeometry relative="1" as="geometry" />
        </mxCell>
        <mxCell id="DTJNCJ_yFgwHsp0HSej9-9" value="&lt;p class=&quot;p1&quot;&gt;MaxPool (2×2) + Dropout(0.25)&lt;/p&gt;" style="rounded=1;whiteSpace=wrap;html=1;" vertex="1" parent="WIyWlLk6GJQsqaUBKTNV-1">
          <mxGeometry x="280" y="544.5" width="290" height="40" as="geometry" />
        </mxCell>
        <mxCell id="DTJNCJ_yFgwHsp0HSej9-22" style="edgeStyle=orthogonalEdgeStyle;rounded=0;orthogonalLoop=1;jettySize=auto;html=1;exitX=0.5;exitY=1;exitDx=0;exitDy=0;entryX=0.5;entryY=0;entryDx=0;entryDy=0;" edge="1" parent="WIyWlLk6GJQsqaUBKTNV-1" source="DTJNCJ_yFgwHsp0HSej9-10" target="DTJNCJ_yFgwHsp0HSej9-11">
          <mxGeometry relative="1" as="geometry" />
        </mxCell>
        <mxCell id="DTJNCJ_yFgwHsp0HSej9-10" value="&lt;p class=&quot;p1&quot;&gt;Flatten&lt;/p&gt;" style="rounded=1;whiteSpace=wrap;html=1;" vertex="1" parent="WIyWlLk6GJQsqaUBKTNV-1">
          <mxGeometry x="280" y="620" width="290" height="40" as="geometry" />
        </mxCell>
        <mxCell id="DTJNCJ_yFgwHsp0HSej9-23" style="edgeStyle=orthogonalEdgeStyle;rounded=0;orthogonalLoop=1;jettySize=auto;html=1;exitX=0.5;exitY=1;exitDx=0;exitDy=0;entryX=0.5;entryY=0;entryDx=0;entryDy=0;" edge="1" parent="WIyWlLk6GJQsqaUBKTNV-1" source="DTJNCJ_yFgwHsp0HSej9-11" target="DTJNCJ_yFgwHsp0HSej9-12">
          <mxGeometry relative="1" as="geometry" />
        </mxCell>
        <mxCell id="DTJNCJ_yFgwHsp0HSej9-11" value="&lt;p class=&quot;p1&quot;&gt;&lt;span style=&quot;background-color: transparent; color: light-dark(rgb(0, 0, 0), rgb(255, 255, 255));&quot;&gt;FC1 (&lt;/span&gt;&lt;span style=&quot;background-color: transparent; color: light-dark(rgb(0, 0, 0), rgb(255, 255, 255));&quot; class=&quot;s1&quot;&gt;512&lt;/span&gt;&lt;span style=&quot;background-color: transparent; color: light-dark(rgb(0, 0, 0), rgb(255, 255, 255));&quot;&gt;) + BatchNorm + ReLU + Dropout(&lt;/span&gt;&lt;span style=&quot;background-color: transparent; color: light-dark(rgb(0, 0, 0), rgb(255, 255, 255));&quot; class=&quot;s1&quot;&gt;0.5&lt;/span&gt;&lt;span style=&quot;background-color: transparent; color: light-dark(rgb(0, 0, 0), rgb(255, 255, 255));&quot;&gt;)&lt;/span&gt;&lt;/p&gt;" style="rounded=1;whiteSpace=wrap;html=1;" vertex="1" parent="WIyWlLk6GJQsqaUBKTNV-1">
          <mxGeometry x="280" y="700" width="290" height="40" as="geometry" />
        </mxCell>
        <mxCell id="DTJNCJ_yFgwHsp0HSej9-24" style="edgeStyle=orthogonalEdgeStyle;rounded=0;orthogonalLoop=1;jettySize=auto;html=1;exitX=0.5;exitY=1;exitDx=0;exitDy=0;entryX=0.5;entryY=0;entryDx=0;entryDy=0;" edge="1" parent="WIyWlLk6GJQsqaUBKTNV-1" source="DTJNCJ_yFgwHsp0HSej9-12" target="DTJNCJ_yFgwHsp0HSej9-13">
          <mxGeometry relative="1" as="geometry" />
        </mxCell>
        <mxCell id="DTJNCJ_yFgwHsp0HSej9-12" value="&lt;p class=&quot;p1&quot;&gt;FC2 (128) + BatchNorm + ReLU + Dropout(0.5)&lt;/p&gt;" style="rounded=1;whiteSpace=wrap;html=1;" vertex="1" parent="WIyWlLk6GJQsqaUBKTNV-1">
          <mxGeometry x="280" y="780" width="290" height="40" as="geometry" />
        </mxCell>
        <mxCell id="DTJNCJ_yFgwHsp0HSej9-13" value="&lt;p class=&quot;p1&quot;&gt;Output: 43-way Softmax&lt;/p&gt;" style="rounded=1;whiteSpace=wrap;html=1;" vertex="1" parent="WIyWlLk6GJQsqaUBKTNV-1">
          <mxGeometry x="280" y="860" width="290" height="40" as="geometry" />
        </mxCell>
        <mxCell id="DTJNCJ_yFgwHsp0HSej9-15" value="" style="endArrow=classic;html=1;rounded=0;exitX=0.5;exitY=1;exitDx=0;exitDy=0;entryX=0.5;entryY=0;entryDx=0;entryDy=0;" edge="1" parent="WIyWlLk6GJQsqaUBKTNV-1" source="DTJNCJ_yFgwHsp0HSej9-0" target="DTJNCJ_yFgwHsp0HSej9-1">
          <mxGeometry width="50" height="50" relative="1" as="geometry">
            <mxPoint x="450" y="440" as="sourcePoint" />
            <mxPoint x="500" y="390" as="targetPoint" />
          </mxGeometry>
        </mxCell>
      </root>
    </mxGraphModel>
  </diagram>
</mxfile>
